<?xml version="1.0" encoding="utf-8"?>
<!-- Generator: Adobe Illustrator 15.0.0, SVG Export Plug-In . SVG Version: 6.00 Build 0)  -->
<!DOCTYPE svg PUBLIC "-//W3C//DTD SVG 1.1//EN" "http://www.w3.org/Graphics/SVG/1.1/DTD/svg11.dtd">
<svg version="1.1" id="Layer_1" focusable="false" xmlns="http://www.w3.org/2000/svg" xmlns:xlink="http://www.w3.org/1999/xlink"
	 x="0px" y="0px" width="64px" height="64px" viewBox="0 0 64 64" enable-background="new 0 0 64 64" xml:space="preserve">
<path d="M50.857,56H13.143C10.302,56,8,53.698,8,50.857V13.143C8,10.302,10.302,8,13.143,8h37.714C53.698,8,56,10.302,56,13.143
	v37.714C56,53.698,53.698,56,50.857,56z M28.926,45.493l19.714-19.714c0.67-0.669,0.67-1.755,0-2.424l-2.424-2.424
	c-0.67-0.669-1.755-0.669-2.425,0L27.714,37.009l-7.506-7.506c-0.669-0.67-1.755-0.67-2.424,0l-2.424,2.424
	c-0.669,0.669-0.669,1.754,0,2.424l11.143,11.143C27.171,46.163,28.257,46.163,28.926,45.493z"/>
</svg>
