<?xml version="1.0" encoding="utf-8"?>
<!-- Generator: Adobe Illustrator 15.0.0, SVG Export Plug-In . SVG Version: 6.00 Build 0)  -->
<!DOCTYPE svg PUBLIC "-//W3C//DTD SVG 1.1//EN" "http://www.w3.org/Graphics/SVG/1.1/DTD/svg11.dtd">
<svg version="1.1" id="Layer_1" xmlns="http://www.w3.org/2000/svg" xmlns:xlink="http://www.w3.org/1999/xlink" x="0px" y="0px"
	 width="64px" height="64px" viewBox="-20 -20 64 64" enable-background="new -20 -20 64 64" xml:space="preserve">
<path d="M12-4.363C1.091-4.363-8.226,2.422-12,12c3.774,9.58,13.091,16.363,24,16.363c10.908,0,20.225-6.783,24-16.363
	C32.225,2.422,22.908-4.363,12-4.363z M12,22.908C5.979,22.908,1.091,18.021,1.091,12S5.979,1.091,12,1.091S22.908,5.979,22.908,12
	S18.021,22.908,12,22.908z M12,5.454c-3.622,0-6.546,2.924-6.546,6.546c0,3.623,2.924,6.545,6.546,6.545
	c3.623,0,6.545-2.922,6.545-6.545C18.545,8.378,15.623,5.454,12,5.454z"/>
</svg>
