<?xml version="1.0" encoding="utf-8"?>
<!-- Generator: Adobe Illustrator 15.0.0, SVG Export Plug-In . SVG Version: 6.00 Build 0)  -->
<!DOCTYPE svg PUBLIC "-//W3C//DTD SVG 1.1//EN" "http://www.w3.org/Graphics/SVG/1.1/DTD/svg11.dtd">
<svg version="1.1" id="Layer_1" focusable="false" xmlns="http://www.w3.org/2000/svg" xmlns:xlink="http://www.w3.org/1999/xlink"
	 x="0px" y="0px" width="64px" height="64px" viewBox="0 0 64 64" enable-background="new 0 0 64 64" xml:space="preserve">
<path d="M54.858,8.016h-4.512c-0.631-0.001-1.143,0.51-1.144,1.141c0,0.019,0,0.037,0.001,0.056l0.38,7.876
	c-4.48-5.279-11.057-8.319-17.98-8.312C18.597,8.777,7.99,19.392,8,32.399c0.009,13.028,10.574,23.585,23.604,23.585
	c5.845,0.008,11.483-2.16,15.816-6.083c0.47-0.42,0.51-1.143,0.089-1.613c-0.014-0.016-0.029-0.031-0.044-0.046l-3.236-3.236
	c-0.425-0.425-1.106-0.448-1.559-0.052c-6.946,6.111-17.53,5.434-23.641-1.512c-6.111-6.945-5.434-17.53,1.512-23.641
	s17.53-5.434,23.641,1.512c0.479,0.544,0.922,1.119,1.327,1.721l-9.663-0.463c-0.63-0.03-1.165,0.457-1.195,1.086
	c-0.001,0.019-0.001,0.037-0.001,0.056v4.512c0,0.631,0.512,1.142,1.143,1.142h19.066c0.631,0,1.142-0.511,1.142-1.142V9.158
	C56,8.527,55.489,8.016,54.858,8.016z"/>
</svg>
