<?xml version="1.0" encoding="utf-8"?>
<!-- Generator: Adobe Illustrator 15.0.0, SVG Export Plug-In . SVG Version: 6.00 Build 0)  -->
<!DOCTYPE svg PUBLIC "-//W3C//DTD SVG 1.1//EN" "http://www.w3.org/Graphics/SVG/1.1/DTD/svg11.dtd">
<svg version="1.1" id="Layer_1" xmlns="http://www.w3.org/2000/svg" xmlns:xlink="http://www.w3.org/1999/xlink" x="0px" y="0px"
	 width="64px" height="64px" viewBox="-20 -20 64 64" enable-background="new -20 -20 64 64" xml:space="preserve">
<path fill="#FFFFFF" d="M26.458,21.888c-1.831,0-3.469,0.723-4.723,1.854L4.555,13.744c0.12-0.555,0.216-1.108,0.216-1.688
	s-0.096-1.133-0.216-1.688l16.987-9.903c1.302,1.205,3.012,1.952,4.916,1.952c4,0,7.229-3.229,7.229-7.229s-3.229-7.229-7.229-7.229
	c-4.001,0-7.229,3.229-7.229,7.229c0,0.579,0.097,1.133,0.217,1.687L2.458,6.779C1.157,5.575-0.554,4.828-2.458,4.828
	c-4,0-7.229,3.229-7.229,7.229c0,4,3.229,7.229,7.229,7.229c1.904,0,3.615-0.748,4.916-1.953l17.157,10.024
	c-0.123,0.509-0.193,1.036-0.193,1.567c0,3.878,3.158,7.036,7.036,7.036s7.036-3.158,7.036-7.036S30.336,21.888,26.458,21.888z"/>
</svg>
